<svg version="1.1" xmlns="http://www.w3.org/2000/svg" viewBox="0 0 965.0080261230469 707.6551080124457" width="965.0080261230469" height="707.6551080124457">
  <!-- svg-source:excalidraw -->
  
  <defs>
    <style class="style-fonts">
      @font-face {
        font-family: "Virgil";
        src: url("https://excalidraw.com/Virgil.woff2");
      }
      @font-face {
        font-family: "Cascadia";
        src: url("https://excalidraw.com/Cascadia.woff2");
      }
      @font-face {
        font-family: "Assistant";
        src: url("https://excalidraw.com/Assistant-Regular.woff2");
      }
    </style>
    
  </defs>
  <rect x="0" y="0" width="965.0080261230469" height="707.6551080124457" fill="#ffffff"></rect><g stroke-linecap="round" transform="translate(10 108.72379823755432) rotate(0 340.0234375 36.4375)"><path d="M18.22 0 C172.54 1.47, 328.05 1.56, 661.83 0 M18.22 0 C171.28 1.09, 324.24 1.4, 661.83 0 M661.83 0 C675.57 -1.26, 681.13 6.97, 680.05 18.22 M661.83 0 C673.77 0.35, 679.75 4.35, 680.05 18.22 M680.05 18.22 C680.71 24.45, 678.96 35.52, 680.05 54.66 M680.05 18.22 C680.25 32.35, 680.78 44.98, 680.05 54.66 M680.05 54.66 C680.73 67.68, 672.46 71.71, 661.83 72.88 M680.05 54.66 C677.88 64.83, 676.26 70.6, 661.83 72.88 M661.83 72.88 C453.48 74.36, 246.87 75.34, 18.22 72.88 M661.83 72.88 C407.68 69.98, 153.11 70.03, 18.22 72.88 M18.22 72.88 C6.04 74.81, 1.59 68.26, 0 54.66 M18.22 72.88 C6.6 74.18, 1.09 66.28, 0 54.66 M0 54.66 C1.28 43.8, -0.27 31.52, 0 18.22 M0 54.66 C-1.16 42.64, -0.2 33.08, 0 18.22 M0 18.22 C1.08 5.14, 5.71 -1.93, 18.22 0 M0 18.22 C0.19 8.15, 4.4 -1, 18.22 0" stroke="#1e1e1e" stroke-width="2" fill="none"></path></g><g transform="translate(25.28515625 115.04411073755432) rotate(0 84.79991912841797 12.5)"><text x="0" y="17.52" font-family="Virgil, Segoe UI Emoji" font-size="20px" fill="#1e1e1e" text-anchor="start" style="white-space: pre;" direction="ltr" dominant-baseline="alphabetic">Operating System</text></g><g stroke-linecap="round" transform="translate(10.078125 188.71989198755432) rotate(0 338.013671875 21.087890625)"><path d="M0.69 5.9 C0.69 5.9, 0.69 5.9, 0.69 5.9 M0.69 5.9 C0.69 5.9, 0.69 5.9, 0.69 5.9 M0.16 18.69 C3.29 15.06, 6.09 7.85, 15.91 0.58 M0.16 18.69 C6.36 11.83, 13.12 4.54, 15.91 0.58 M0.3 30.73 C6.25 22.79, 10.59 17.74, 26.54 0.55 M0.3 30.73 C7.34 22.33, 14.89 13, 26.54 0.55 M3.06 39.76 C13.84 27.58, 26.65 15.83, 37.17 0.51 M3.06 39.76 C15.2 25.72, 28.58 9.64, 37.17 0.51 M11.06 42.74 C23.33 29.35, 32.19 19.55, 47.8 0.48 M11.06 42.74 C20.74 31.91, 30.73 20.33, 47.8 0.48 M21.69 42.71 C35.78 28.4, 48.31 12.6, 58.43 0.44 M21.69 42.71 C32.85 28.68, 43.66 16.86, 58.43 0.44 M32.32 42.67 C46.14 29.41, 57.56 13.63, 69.06 0.41 M32.32 42.67 C44 29.73, 54.57 18.93, 69.06 0.41 M42.95 42.64 C55.53 30.18, 67.01 14.68, 79.69 0.37 M42.95 42.64 C53.41 29.91, 64.6 16.76, 79.69 0.37 M53.58 42.6 C62.65 31.75, 69.28 24.55, 90.32 0.34 M53.58 42.6 C68.64 26.17, 81.29 10.4, 90.32 0.34 M64.21 42.57 C70.36 34.47, 77.87 24.3, 100.95 0.3 M64.21 42.57 C73.37 32.53, 80.97 22.86, 100.95 0.3 M74.84 42.53 C83.75 31.95, 90.61 23.88, 111.58 0.27 M74.84 42.53 C86.54 30.01, 98.52 16.04, 111.58 0.27 M85.47 42.5 C93.99 32.37, 103.64 23.76, 122.21 0.24 M85.47 42.5 C99.24 26.02, 112.72 10.87, 122.21 0.24 M96.1 42.46 C108.11 27.32, 123.26 12.23, 132.84 0.2 M96.1 42.46 C103.97 33.73, 111.55 25.59, 132.84 0.2 M106.73 42.43 C114.86 33.89, 121.17 22.04, 143.47 0.17 M106.73 42.43 C118.34 28.98, 129.15 16.52, 143.47 0.17 M117.36 42.4 C130.15 29.59, 138.73 15.52, 154.1 0.13 M117.36 42.4 C130.51 28.91, 143.02 12.98, 154.1 0.13 M127.99 42.36 C140.06 27.9, 149.98 16.5, 164.73 0.1 M127.99 42.36 C136.3 32.85, 144.56 22.65, 164.73 0.1 M138.62 42.33 C150.92 30.41, 163.21 17.08, 175.36 0.06 M138.62 42.33 C152.55 26.91, 166.93 10.87, 175.36 0.06 M148.6 43.05 C163.19 28.41, 175.09 8.64, 185.99 0.03 M148.6 43.05 C159.38 30.63, 168.68 19, 185.99 0.03 M159.23 43.01 C167.62 31.41, 177.89 21.35, 196.62 -0.01 M159.23 43.01 C171.3 27.47, 185.59 12.74, 196.62 -0.01 M169.86 42.98 C180.68 30.4, 188.83 20.33, 207.25 -0.04 M169.86 42.98 C183.08 27.26, 195.24 13.9, 207.25 -0.04 M180.49 42.94 C195.96 25.78, 210.12 10.32, 217.88 -0.07 M180.49 42.94 C195.75 24.98, 210.52 8.57, 217.88 -0.07 M191.12 42.91 C199.81 33.06, 211.34 18.2, 227.86 0.65 M191.12 42.91 C201.13 31.75, 211.03 19.11, 227.86 0.65 M201.75 42.87 C209.02 34.57, 216.65 22.08, 238.49 0.61 M201.75 42.87 C213.09 30, 223.59 16.66, 238.49 0.61 M212.38 42.84 C226.1 26.67, 239.65 11.29, 249.12 0.58 M212.38 42.84 C223.77 29.41, 235.27 16.6, 249.12 0.58 M223.01 42.81 C236.64 25.91, 249.89 12.98, 259.75 0.54 M223.01 42.81 C235.86 27.55, 247.4 13.21, 259.75 0.54 M233.64 42.77 C243.49 28.82, 254.86 15.28, 270.38 0.51 M233.64 42.77 C241.79 33.33, 248.98 23.51, 270.38 0.51 M244.27 42.74 C257.32 26.14, 270.73 11.22, 281.01 0.47 M244.27 42.74 C251.44 34.3, 259.11 25.97, 281.01 0.47 M254.9 42.7 C267.6 28.45, 277.94 14.55, 291.64 0.44 M254.9 42.7 C267.96 27.59, 281.99 11.9, 291.64 0.44 M265.53 42.67 C278.14 28.19, 288.97 16.8, 302.27 0.4 M265.53 42.67 C275.66 29.42, 286.66 16.67, 302.27 0.4 M276.16 42.63 C285.82 29.73, 296.36 19.99, 312.9 0.37 M276.16 42.63 C284.49 32.71, 294.86 21.68, 312.9 0.37 M286.79 42.6 C295.8 31.27, 305.41 22.44, 323.53 0.33 M286.79 42.6 C295 33.23, 303.81 23.58, 323.53 0.33 M297.42 42.56 C307.14 32.84, 311.86 24.51, 334.16 0.3 M297.42 42.56 C309.17 27.76, 323.04 12.61, 334.16 0.3 M308.05 42.53 C318.12 29.62, 329.32 18.28, 344.79 0.27 M308.05 42.53 C319.82 28.35, 332.25 13.02, 344.79 0.27 M318.68 42.5 C331.02 26.82, 342.1 16.24, 355.42 0.23 M318.68 42.5 C330.08 30.76, 339.54 16.81, 355.42 0.23 M329.31 42.46 C343.17 27.17, 354.31 11.04, 366.05 0.2 M329.31 42.46 C343.3 27.34, 357.08 12.24, 366.05 0.2 M339.94 42.43 C354.17 26.82, 364.61 12.79, 376.68 0.16 M339.94 42.43 C350.49 29.93, 361.21 18.83, 376.68 0.16 M350.57 42.39 C361.63 28.38, 372.58 18.83, 387.31 0.13 M350.57 42.39 C364.46 26.48, 376.51 12.86, 387.31 0.13 M361.2 42.36 C372.6 30.57, 384.97 16.28, 397.94 0.09 M361.2 42.36 C371.7 31.08, 382.2 16.84, 397.94 0.09 M371.83 42.32 C383.68 30.06, 391.89 17.6, 408.57 0.06 M371.83 42.32 C386.85 25.4, 399.94 9.43, 408.57 0.06 M381.8 43.04 C391.41 33.21, 399.38 24.51, 419.2 0.02 M381.8 43.04 C389.64 32.7, 398.08 23.11, 419.2 0.02 M392.43 43.01 C401.9 33.53, 409.27 27, 429.83 -0.01 M392.43 43.01 C401.85 33.58, 410.03 22.22, 429.83 -0.01 M403.06 42.97 C417.52 26.27, 430.24 10, 440.46 -0.04 M403.06 42.97 C416.25 27.82, 431.38 11.53, 440.46 -0.04 M413.69 42.94 C428.3 27.59, 440.9 12.03, 451.09 -0.08 M413.69 42.94 C423.55 30.5, 434.37 18.23, 451.09 -0.08 M424.32 42.9 C437.4 29.54, 447.37 17.91, 461.06 0.64 M424.32 42.9 C439.07 26.6, 452.71 10.16, 461.06 0.64 M434.95 42.87 C444.22 32.28, 452.19 21.25, 471.69 0.61 M434.95 42.87 C444.79 31.15, 454.05 20.69, 471.69 0.61 M445.58 42.84 C459 28.47, 469.76 14.6, 482.32 0.57 M445.58 42.84 C455.82 30.37, 465.09 19.9, 482.32 0.57 M456.21 42.8 C467.54 29.33, 476.69 16.59, 492.95 0.54 M456.21 42.8 C465.05 32.38, 474.65 22.8, 492.95 0.54 M466.84 42.77 C479.32 28.39, 487.9 15.06, 503.58 0.5 M466.84 42.77 C474.46 34.53, 482.88 25.82, 503.58 0.5 M477.47 42.73 C486.07 31.56, 500.44 19.72, 514.21 0.47 M477.47 42.73 C488.39 30.82, 498.34 17.82, 514.21 0.47 M488.1 42.7 C494.87 35.11, 504.79 24.47, 524.84 0.43 M488.1 42.7 C500.32 29.33, 512.71 15.14, 524.84 0.43 M498.73 42.66 C511.16 31.58, 517.95 17.78, 535.47 0.4 M498.73 42.66 C507.92 32.21, 515.8 21.9, 535.47 0.4 M509.36 42.63 C522.32 30.82, 532.32 18.31, 546.1 0.37 M509.36 42.63 C520.25 28.76, 532.64 15.3, 546.1 0.37 M519.99 42.59 C533.24 28.26, 544.2 14.65, 556.73 0.33 M519.99 42.59 C528.92 32.7, 537.2 22.33, 556.73 0.33 M530.62 42.56 C541.89 27.56, 553.28 13.71, 567.36 0.3 M530.62 42.56 C540.97 30.3, 549.92 19.92, 567.36 0.3 M541.25 42.53 C548.22 33.18, 558.35 26.16, 577.99 0.26 M541.25 42.53 C551.53 31.49, 558.85 21.47, 577.99 0.26 M551.88 42.49 C557.99 31.97, 567.31 24.34, 588.62 0.23 M551.88 42.49 C564.53 26.73, 579.08 13.06, 588.62 0.23 M562.51 42.46 C570.6 31.55, 581.56 22.88, 599.25 0.19 M562.51 42.46 C575.53 27.25, 590.68 10.27, 599.25 0.19 M573.14 42.42 C583.93 29.5, 599.08 16.23, 609.88 0.16 M573.14 42.42 C581.44 34.42, 587.74 25.28, 609.88 0.16 M583.77 42.39 C593.86 33, 601.29 19.57, 620.51 0.12 M583.77 42.39 C592.55 31.82, 602.37 19.33, 620.51 0.12 M594.4 42.35 C606.12 29.02, 614.35 18.99, 631.14 0.09 M594.4 42.35 C608.67 26.45, 621.29 13.23, 631.14 0.09 M605.03 42.32 C616.24 29.7, 626.51 19.47, 641.77 0.05 M605.03 42.32 C619.3 25.61, 632.7 9.65, 641.77 0.05 M615.01 43.04 C630.24 26.22, 641.8 9.89, 652.4 0.02 M615.01 43.04 C626.28 30.63, 638.32 17.82, 652.4 0.02 M625.64 43 C640.34 26.83, 652.14 12.97, 663.03 -0.01 M625.64 43 C636.9 30.26, 646.3 18.57, 663.03 -0.01 M636.27 42.97 C646.81 30.71, 656.91 21.43, 671.7 2.22 M636.27 42.97 C647.83 29.93, 659.69 16.41, 671.7 2.22 M646.9 42.94 C655.56 36.33, 659.66 27.96, 675.77 9.73 M646.9 42.94 C656.71 31.73, 666.67 21.44, 675.77 9.73 M657.53 42.9 C662.7 34.98, 668.71 28.6, 676.55 21.01 M657.53 42.9 C662.89 36.95, 668.18 30.74, 676.55 21.01 M669.47 41.36 C671.85 40.31, 672.6 38.4, 675.38 34.56 M669.47 41.36 C671.21 39.4, 672.71 37.68, 675.38 34.56" stroke="#a5d8ff" stroke-width="1" fill="none"></path><path d="M10.54 0 C158.56 0.39, 304.89 1.28, 665.48 0 M10.54 0 C174.16 -1.7, 337.35 -1.89, 665.48 0 M665.48 0 C673.61 1.93, 677.55 5.32, 676.03 10.54 M665.48 0 C674.61 1.64, 675.67 1.87, 676.03 10.54 M676.03 10.54 C676.21 17.27, 675.14 24.24, 676.03 31.63 M676.03 10.54 C676.79 18.1, 676.13 26.04, 676.03 31.63 M676.03 31.63 C676.03 39.96, 672.46 40.31, 665.48 42.18 M676.03 31.63 C675.58 40.63, 673.82 41.11, 665.48 42.18 M665.48 42.18 C513.29 41.33, 360.35 41.39, 10.54 42.18 M665.48 42.18 C425.56 39.6, 185.36 40.26, 10.54 42.18 M10.54 42.18 C4.7 41.81, -0.09 40.12, 0 31.63 M10.54 42.18 C2.38 41.52, -1.59 39.08, 0 31.63 M0 31.63 C0.91 27.74, 0.12 20.75, 0 10.54 M0 31.63 C0.43 27.61, -0.45 22.11, 0 10.54 M0 10.54 C1.5 2.37, 5.39 1.82, 10.54 0 M0 10.54 C0.7 3.82, 5.03 -0.83, 10.54 0" stroke="#1e1e1e" stroke-width="2" fill="none"></path></g><g transform="translate(27.30859375 203.12223573755432) rotate(0 139.05987548828125 12.5)"><text x="0" y="17.52" font-family="Virgil, Segoe UI Emoji" font-size="20px" fill="#1e1e1e" text-anchor="start" style="white-space: pre;" direction="ltr" dominant-baseline="alphabetic">System Python (Do not use)</text></g><g stroke-linecap="round" transform="translate(12.78125 238.92692323755432) rotate(0 336.14453125 65.3359375)"><path d="M32 0 C217.53 1.53, 403.01 1.23, 640.29 0 M32 0 C156.41 1.34, 280.59 0.81, 640.29 0 M640.29 0 C663.17 -1.16, 673.29 11.92, 672.29 32 M640.29 0 C659.54 0.94, 672.41 9.18, 672.29 32 M672.29 32 C673.04 56.03, 670.97 77.66, 672.29 98.67 M672.29 32 C672.67 56.67, 672.01 80.08, 672.29 98.67 M672.29 98.67 C671.72 118.77, 661.08 129.8, 640.29 130.67 M672.29 98.67 C672.21 118.81, 663.5 130.6, 640.29 130.67 M640.29 130.67 C455.15 130.33, 268.47 130.16, 32 130.67 M640.29 130.67 C511.8 131.72, 383.75 131.8, 32 130.67 M32 130.67 C10.47 131.78, 0.99 118.18, 0 98.67 M32 130.67 C12.14 132.82, 1.96 119.83, 0 98.67 M0 98.67 C0.9 72.85, -0.41 46.21, 0 32 M0 98.67 C0.87 83.7, -0.18 67.43, 0 32 M0 32 C1.43 11.89, 11.68 1.36, 32 0 M0 32 C2.04 11.37, 10.09 -2.18, 32 0" stroke="#1e1e1e" stroke-width="2" fill="none"></path></g><g transform="translate(30.05859375 263.3995794875543) rotate(0 167.70985412597656 12.5)"><text x="0" y="17.52" font-family="Virgil, Segoe UI Emoji" font-size="20px" fill="#1e1e1e" text-anchor="start" style="white-space: pre;" direction="ltr" dominant-baseline="alphabetic">Python for User Development 3.12</text></g><g transform="translate(33.67578125 379.5714544875543) rotate(0 108.41990661621094 12.5)"><text x="0" y="17.52" font-family="Virgil, Segoe UI Emoji" font-size="20px" fill="#1e1e1e" text-anchor="start" style="white-space: pre;" direction="ltr" dominant-baseline="alphabetic">Isolated Environments</text></g><g stroke-linecap="round" transform="translate(30.28125 405.3058294875543) rotate(0 88.421875 50.775390625)"><path d="M77.49 0.56 C89.48 -0.96, 104.98 0.49, 117.17 2.88 C129.36 5.26, 141.69 9.75, 150.63 14.86 C159.57 19.97, 166.42 26.69, 170.8 33.55 C175.19 40.4, 177.97 48.79, 176.95 56 C175.94 63.22, 171.29 70.53, 164.74 76.84 C158.2 83.14, 148.49 89.72, 137.68 93.83 C126.87 97.94, 112.79 100.73, 99.89 101.52 C86.99 102.31, 72.54 101.01, 60.29 98.57 C48.04 96.13, 35.44 91.94, 26.4 86.88 C17.36 81.81, 10.22 74.93, 6.03 68.19 C1.83 61.44, 0.12 53.84, 1.23 46.41 C2.35 38.98, 6.11 30.03, 12.71 23.61 C19.32 17.19, 28.48 11.68, 40.86 7.9 C53.25 4.12, 77.84 2.14, 87.02 0.93 C96.2 -0.28, 96.13 -0.09, 95.95 0.65 M81.03 0.11 C93.11 -1.28, 108.04 -0.51, 120.08 2.21 C132.11 4.93, 144.57 10.72, 153.23 16.41 C161.89 22.1, 168.4 29.63, 172.02 36.37 C175.65 43.11, 176.9 49.69, 174.98 56.86 C173.06 64.03, 167.3 73.21, 160.5 79.39 C153.7 85.58, 144.71 90.07, 134.16 93.97 C123.62 97.87, 110.32 102.01, 97.25 102.82 C84.18 103.63, 68.13 101.68, 55.77 98.84 C43.41 96, 31.63 91.42, 23.11 85.77 C14.59 80.13, 8.41 72.13, 4.65 64.95 C0.89 57.76, -1.2 49.76, 0.55 42.64 C2.3 35.52, 8.09 27.98, 15.17 22.23 C22.24 16.47, 31.8 11.68, 42.99 8.13 C54.19 4.57, 76.05 1.87, 82.36 0.89 C88.67 -0.08, 80.9 1.59, 80.86 2.28" stroke="#1e1e1e" stroke-width="2" fill="none"></path></g><g stroke-linecap="round" transform="translate(249.96875 400.0675482375543) rotate(0 88.421875 50.775390625)"><path d="M70.1 1 C81.83 -1.02, 97.8 -0.19, 110.23 1.62 C122.66 3.43, 134.84 7.22, 144.69 11.86 C154.54 16.51, 164.07 22.91, 169.33 29.51 C174.58 36.1, 176.55 44.09, 176.19 51.43 C175.84 58.78, 172.7 66.98, 167.2 73.59 C161.71 80.2, 153.35 86.63, 143.22 91.09 C133.09 95.55, 118.95 98.7, 106.44 100.36 C93.92 102.02, 80.53 102.83, 68.13 101.04 C55.73 99.25, 42.14 94.34, 32.04 89.61 C21.94 84.88, 13.04 79.3, 7.55 72.64 C2.05 65.98, -1.32 57.16, -0.95 49.65 C-0.57 42.15, 3.93 33.99, 9.79 27.62 C15.66 21.25, 23.07 16.11, 34.26 11.41 C45.45 6.71, 68.3 1.09, 76.91 -0.59 C85.52 -2.27, 85.49 0.28, 85.92 1.33 M116.32 2.65 C128.49 4.34, 142.98 9.86, 152.1 14.86 C161.23 19.86, 167.06 25.76, 171.05 32.64 C175.05 39.52, 177.41 48.38, 176.08 56.14 C174.76 63.9, 169.94 72.84, 163.11 79.21 C156.27 85.58, 146.04 90.77, 135.08 94.37 C124.12 97.97, 110.13 99.85, 97.37 100.81 C84.6 101.78, 70.63 102.65, 58.52 100.13 C46.4 97.62, 33.44 91.11, 24.68 85.74 C15.92 80.36, 9.75 74.78, 5.97 67.88 C2.18 60.97, 0.49 51.51, 1.98 44.3 C3.47 37.1, 8.21 30.92, 14.92 24.63 C21.62 18.35, 31.54 10.65, 42.23 6.6 C52.92 2.55, 66.4 1.12, 79.05 0.33 C91.7 -0.47, 111.92 1.27, 118.14 1.85 C124.35 2.44, 116.66 2.83, 116.35 3.84" stroke="#1e1e1e" stroke-width="2" fill="none"></path></g><g stroke-linecap="round" transform="translate(465.27734375 393.4542669875543) rotate(0 88.421875 49.4921875)"><path d="M108.45 1.04 C120.63 2.02, 133.97 7.43, 144.08 11.86 C154.2 16.3, 163.72 21.17, 169.12 27.63 C174.53 34.08, 176.83 43.42, 176.52 50.59 C176.2 57.76, 172.68 64.26, 167.24 70.65 C161.8 77.05, 153.83 84.49, 143.89 88.97 C133.94 93.44, 120.18 95.92, 107.56 97.5 C94.94 99.09, 80.72 100.15, 68.17 98.48 C55.62 96.81, 42.17 92.2, 32.27 87.49 C22.37 82.79, 14.01 76.68, 8.77 70.26 C3.53 63.85, 0.93 55.96, 0.8 48.99 C0.68 42.01, 2.57 34.95, 8.02 28.42 C13.47 21.89, 23.27 14.41, 33.49 9.79 C43.71 5.17, 54.65 1.76, 69.34 0.69 C84.02 -0.37, 111.17 2.4, 121.59 3.42 C132 4.45, 132.32 6.1, 131.83 6.84 M80.38 -0.05 C92.07 -1.35, 105.6 0.1, 117.68 2.82 C129.76 5.53, 143.82 11.25, 152.85 16.23 C161.88 21.21, 168.15 26.01, 171.88 32.69 C175.61 39.38, 176.92 49.2, 175.22 56.33 C173.52 63.47, 168.26 69.47, 161.69 75.51 C155.12 81.55, 146.7 88.57, 135.78 92.56 C124.87 96.55, 109.35 99, 96.22 99.47 C83.1 99.93, 68.7 98.16, 57.01 95.36 C45.31 92.55, 34.76 87.56, 26.06 82.62 C17.36 77.68, 9.14 72.23, 4.8 65.71 C0.47 59.2, -1.7 50.72, 0.04 43.53 C1.77 36.33, 8.15 28.82, 15.22 22.54 C22.29 16.26, 31.79 9.56, 42.45 5.83 C53.11 2.1, 72.99 1.06, 79.16 0.15 C85.32 -0.77, 79.33 -0.5, 79.43 0.35" stroke="#1e1e1e" stroke-width="2" fill="none"></path></g><g stroke-linecap="round" transform="translate(141.53125 514.6847357375543) rotate(0 88.421875 49.4921875)"><path d="M81.48 -0.01 C93.54 -1.3, 109.56 0.92, 121.62 3.64 C133.69 6.37, 145.34 11.21, 153.87 16.34 C162.41 21.47, 169.29 27.81, 172.82 34.44 C176.36 41.07, 177.09 48.97, 175.09 56.14 C173.09 63.31, 167.91 71.43, 160.83 77.46 C153.75 83.5, 143.48 88.81, 132.61 92.36 C121.73 95.92, 108.5 98.1, 95.58 98.79 C82.66 99.49, 67.03 99.21, 55.1 96.53 C43.18 93.85, 32.56 87.98, 24.03 82.7 C15.5 77.42, 7.84 71.68, 3.92 64.87 C0 58.06, -1.46 48.96, 0.5 41.83 C2.46 34.7, 8.41 28.02, 15.68 22.09 C22.95 16.17, 32.41 10.05, 44.15 6.28 C55.89 2.5, 78.78 0.18, 86.1 -0.56 C93.41 -1.29, 88.08 1.06, 88.04 1.86 M65.89 0.36 C77.28 -2.23, 91.08 0.13, 103.77 1.43 C116.47 2.74, 131.74 3.94, 142.07 8.18 C152.41 12.42, 160.06 20.43, 165.77 26.86 C171.49 33.3, 175.54 39.75, 176.38 46.77 C177.22 53.8, 175.76 62.23, 170.81 69 C165.86 75.78, 156.83 82.81, 146.67 87.42 C136.52 92.02, 122.23 95.06, 109.87 96.62 C97.51 98.18, 84.91 98.02, 72.51 96.78 C60.11 95.53, 45.94 93.4, 35.47 89.15 C25 84.89, 15.82 77.33, 9.69 71.23 C3.55 65.13, -1.11 59.24, -1.35 52.56 C-1.59 45.88, 2.98 37.95, 8.24 31.16 C13.5 24.38, 20.7 16.96, 30.23 11.86 C39.77 6.75, 59.37 1.94, 65.44 0.52 C71.51 -0.91, 66.04 2.34, 66.65 3.29" stroke="#1e1e1e" stroke-width="2" fill="none"></path></g><g stroke-linecap="round" transform="translate(378.79296875 502.9659857375543) rotate(0 88.421875 49.4921875)"><path d="M84.12 -0.62 C96.43 -1.51, 111.67 1.45, 123.32 4.39 C134.97 7.33, 145.67 11.76, 154.03 17.03 C162.4 22.3, 170.01 29.2, 173.53 36.01 C177.05 42.83, 177.43 50.72, 175.14 57.92 C172.85 65.12, 167.18 73.48, 159.78 79.21 C152.38 84.94, 141.72 88.89, 130.74 92.31 C119.75 95.72, 106.46 99.12, 93.86 99.68 C81.25 100.24, 67.11 98.62, 55.11 95.65 C43.12 92.69, 30.38 87.41, 21.89 81.88 C13.41 76.35, 7.49 69.32, 4.2 62.45 C0.92 55.58, 0.2 47.49, 2.18 40.65 C4.17 33.81, 8.63 27.23, 16.11 21.42 C23.59 15.61, 33.97 9.47, 47.08 5.79 C60.18 2.12, 85.12 -0.12, 94.75 -0.66 C104.38 -1.19, 104.92 1.63, 104.85 2.6 M52.56 5.47 C62.94 1.57, 76.95 -0.95, 89.46 -1.01 C101.97 -1.07, 116.16 1.66, 127.63 5.09 C139.09 8.52, 150.6 13.9, 158.26 19.58 C165.91 25.25, 171.13 32.4, 173.57 39.13 C176.01 45.86, 175.79 53.19, 172.88 59.95 C169.97 66.7, 163.98 74.09, 156.11 79.65 C148.23 85.21, 137.07 90.2, 125.64 93.31 C114.22 96.41, 100.29 98.34, 87.54 98.28 C74.79 98.22, 60.48 95.83, 49.14 92.93 C37.8 90.03, 27.57 86.37, 19.49 80.88 C11.41 75.38, 3.34 67.14, 0.67 59.96 C-2 52.78, 0.48 44.93, 3.49 37.79 C6.5 30.65, 10.64 22.57, 18.72 17.11 C26.8 11.65, 46.34 6.73, 51.98 5.02 C57.63 3.32, 51.87 6.18, 52.58 6.9" stroke="#1e1e1e" stroke-width="2" fill="none"></path></g><g stroke-linecap="round" transform="translate(14.43359375 374.8956732375543) rotate(0 338.88671875 121.560546875)"><path d="M32 0 C168.48 0.48, 303.47 -0.13, 645.77 0 M32 0 C179 0.9, 324.95 1.32, 645.77 0 M645.77 0 C666.59 0.77, 678.36 10.68, 677.77 32 M645.77 0 C665.99 0.73, 678.82 11.55, 677.77 32 M677.77 32 C678.37 68.64, 679.18 109.01, 677.77 211.12 M677.77 32 C678.03 72.51, 676.86 112.93, 677.77 211.12 M677.77 211.12 C678.33 233.24, 668 243.76, 645.77 243.12 M677.77 211.12 C678.41 231.29, 668.94 242.77, 645.77 243.12 M645.77 243.12 C444.74 245.34, 243.44 244.92, 32 243.12 M645.77 243.12 C514.52 240.92, 383.37 240.91, 32 243.12 M32 243.12 C10.66 241.59, -1.12 234.12, 0 211.12 M32 243.12 C8.8 243.55, -2.26 231, 0 211.12 M0 211.12 C1.73 152.89, -0.58 97.22, 0 32 M0 211.12 C1.6 151.15, 2.45 91.99, 0 32 M0 32 C0.68 10.64, 11.19 1.86, 32 0 M0 32 C-2.19 10.33, 10.61 0.49, 32 0" stroke="#1e1e1e" stroke-width="2" fill="none"></path></g><g transform="translate(104.46875 431.1691107375543) rotate(0 19.379989624023438 12.5)"><text x="0" y="17.52" font-family="Virgil, Segoe UI Emoji" font-size="20px" fill="#1e1e1e" text-anchor="start" style="white-space: pre;" direction="ltr" dominant-baseline="alphabetic">3.12</text></g><g transform="translate(319.3359375 433.4698919875543) rotate(0 19.379989624023438 12.5)"><text x="0" y="17.52" font-family="Virgil, Segoe UI Emoji" font-size="20px" fill="#1e1e1e" text-anchor="start" style="white-space: pre;" direction="ltr" dominant-baseline="alphabetic">3.12</text></g><g transform="translate(536.7421875 425.0675482375543) rotate(0 19.379989624023438 12.5)"><text x="0" y="17.52" font-family="Virgil, Segoe UI Emoji" font-size="20px" fill="#1e1e1e" text-anchor="start" style="white-space: pre;" direction="ltr" dominant-baseline="alphabetic">3.12</text></g><g transform="translate(211.70703125 547.9972357375543) rotate(0 19.379989624023438 12.5)"><text x="0" y="17.52" font-family="Virgil, Segoe UI Emoji" font-size="20px" fill="#1e1e1e" text-anchor="start" style="white-space: pre;" direction="ltr" dominant-baseline="alphabetic">3.12</text></g><g transform="translate(450.84375 539.0753607375543) rotate(0 19.379989624023438 12.5)"><text x="0" y="17.52" font-family="Virgil, Segoe UI Emoji" font-size="20px" fill="#1e1e1e" text-anchor="start" style="white-space: pre;" direction="ltr" dominant-baseline="alphabetic">3.12</text></g><g stroke-linecap="round" transform="translate(36.1640625 302.7706732375543) rotate(0 52.970703125 23.416015625)"><path d="M11.71 0 C37.32 -0.07, 61.4 -0.21, 94.23 0 M94.23 0 C103.95 0.7, 107.85 2.81, 105.94 11.71 M105.94 11.71 C105.07 16.41, 107.67 20.06, 105.94 35.12 M105.94 35.12 C105.98 42.44, 102.35 45.62, 94.23 46.83 M94.23 46.83 C67.18 44.43, 37.71 47.17, 11.71 46.83 M11.71 46.83 C3.91 47.95, 0.97 44.35, 0 35.12 M0 35.12 C2.05 28.06, -0.18 24.79, 0 11.71 M0 11.71 C1.67 2.68, 5.38 0.66, 11.71 0" stroke="#1e1e1e" stroke-width="2.5" fill="none" stroke-dasharray="8 10"></path></g><g transform="translate(50.72679901123047 316.1866888625543) rotate(0 38.40796661376953 10)"><text x="38.40796661376953" y="14.016" font-family="Virgil, Segoe UI Emoji" font-size="16px" fill="#1e1e1e" text-anchor="middle" style="white-space: pre;" direction="ltr" dominant-baseline="alphabetic">python.org</text></g><g stroke-linecap="round" transform="translate(163.5 290.3995794875543) rotate(0 52.970703125 35)"><path d="M17.5 0 C41.24 -0.25, 66.07 -0.37, 88.44 0 M88.44 0 C101.56 -0.08, 107.11 7.14, 105.94 17.5 M105.94 17.5 C106.25 29.46, 104.4 38.75, 105.94 52.5 M105.94 52.5 C104.44 63.7, 101.41 69.04, 88.44 70 M88.44 70 C73.64 69.76, 57.6 69.01, 17.5 70 M17.5 70 C5.55 70.64, -0.95 63.1, 0 52.5 M0 52.5 C1.48 42.43, 0.76 33.5, 0 17.5 M0 17.5 C-1.35 5.96, 6.31 -1.44, 17.5 0" stroke="#1e1e1e" stroke-width="2.5" fill="none" stroke-dasharray="8 10"></path></g><g transform="translate(169.47872161865234 295.3995794875543) rotate(0 46.991981506347656 30)"><text x="46.991981506347656" y="14.016" font-family="Virgil, Segoe UI Emoji" font-size="16px" fill="#1e1e1e" text-anchor="middle" style="white-space: pre;" direction="ltr" dominant-baseline="alphabetic">brew, </text><text x="46.991981506347656" y="34.016" font-family="Virgil, Segoe UI Emoji" font-size="16px" fill="#1e1e1e" text-anchor="middle" style="white-space: pre;" direction="ltr" dominant-baseline="alphabetic">chocolatey, </text><text x="46.991981506347656" y="54.016" font-family="Virgil, Segoe UI Emoji" font-size="16px" fill="#1e1e1e" text-anchor="middle" style="white-space: pre;" direction="ltr" dominant-baseline="alphabetic">apt, etc.</text></g><g stroke-linecap="round" transform="translate(297.916015625 300.5070013625543) rotate(0 52.970703125 25)"><path d="M12.5 0 C37.95 -1.01, 64.32 -1.94, 93.44 0 M93.44 0 C100.89 1.2, 107.85 4.26, 105.94 12.5 M105.94 12.5 C105.73 18.04, 104.94 24.71, 105.94 37.5 M105.94 37.5 C104.61 43.95, 103.23 48.57, 93.44 50 M93.44 50 C63.06 49.65, 31.74 50.03, 12.5 50 M12.5 50 C5.96 51.18, 0.91 44.66, 0 37.5 M0 37.5 C1.87 29.77, -0.84 20.35, 0 12.5 M0 12.5 C0.31 5.71, 6.13 -1.59, 12.5 0" stroke="#1e1e1e" stroke-width="2.5" fill="none" stroke-dasharray="8 10"></path></g><g transform="translate(326.0227355957031 305.5070013625543) rotate(0 24.863983154296875 20)"><text x="24.863983154296875" y="14.016" font-family="Virgil, Segoe UI Emoji" font-size="16px" fill="#1e1e1e" text-anchor="middle" style="white-space: pre;" direction="ltr" dominant-baseline="alphabetic">conda</text><text x="24.863983154296875" y="34.016" font-family="Virgil, Segoe UI Emoji" font-size="16px" fill="#1e1e1e" text-anchor="middle" style="white-space: pre;" direction="ltr" dominant-baseline="alphabetic">mamba</text></g><g stroke-linecap="round" transform="translate(433.626953125 250.84684511255432) rotate(0 79.96484375 55)"><path d="M27.5 0 C63.87 0.41, 96.73 0.62, 132.43 0 M132.43 0 C151.16 1.14, 160.18 8.82, 159.93 27.5 M159.93 27.5 C159.5 39.22, 162.13 47.79, 159.93 82.5 M159.93 82.5 C158.35 102.72, 150.44 108.61, 132.43 110 M132.43 110 C97.5 106.95, 65.88 110.62, 27.5 110 M27.5 110 C10.97 109.97, -0.21 101, 0 82.5 M0 82.5 C-0.35 67.7, 1.52 54.78, 0 27.5 M0 27.5 C-0.64 10.15, 8.4 0.49, 27.5 0" stroke="#1e1e1e" stroke-width="2.5" fill="none" stroke-dasharray="8 10"></path></g><g transform="translate(450.8158416748047 265.8468451125543) rotate(0 62.77595520019531 40)"><text x="62.77595520019531" y="14.016" font-family="Virgil, Segoe UI Emoji" font-size="16px" fill="#1e1e1e" text-anchor="middle" style="white-space: pre;" direction="ltr" dominant-baseline="alphabetic">pixi</text><text x="62.77595520019531" y="34.016" font-family="Virgil, Segoe UI Emoji" font-size="16px" fill="#1e1e1e" text-anchor="middle" style="white-space: pre;" direction="ltr" dominant-baseline="alphabetic">rye</text><text x="62.77595520019531" y="54.016" font-family="Virgil, Segoe UI Emoji" font-size="16px" fill="#1e1e1e" text-anchor="middle" style="white-space: pre;" direction="ltr" dominant-baseline="alphabetic">indygreg/python-</text><text x="62.77595520019531" y="74.016" font-family="Virgil, Segoe UI Emoji" font-size="16px" fill="#1e1e1e" text-anchor="middle" style="white-space: pre;" direction="ltr" dominant-baseline="alphabetic">build-standalone</text></g><g stroke-linecap="round" transform="translate(140.3359375 355.9542669875543) rotate(0 0.119140625 0.126953125)"><path d="M0.06 0 C0.1 0, 0.15 0, 0.18 0 M0.18 0 C0.18 0, 0.57 -0.62, 0.24 0.06 M0.24 0.06 C0.23 0.11, 0.24 0.16, 0.24 0.19 M0.24 0.19 C0.18 0.83, -0.15 0.89, 0.18 0.25 M0.18 0.25 C0.15 0.25, 0.12 0.25, 0.06 0.25 M0.06 0.25 C0.61 0.09, 0.55 0.73, 0 0.19 M0 0.19 C0 0.14, 0 0.09, 0 0.06 M0 0.06 C-0.04 -0.25, -0.13 0.47, 0.06 0" stroke="#1e1e1e" stroke-width="2.5" fill="none" stroke-dasharray="8 10"></path></g><g stroke-linecap="round" transform="translate(607.884765625 268.8351263625543) rotate(0 33.2890625 39)"><path d="M16.64 0 C23.02 0.6, 33.23 -1.57, 49.93 0 M49.93 0 C60.98 0.12, 68.34 5.07, 66.58 16.64 M66.58 16.64 C66.89 32.63, 66.3 49.87, 66.58 61.36 M66.58 61.36 C66.67 72.24, 60.92 77.2, 49.93 78 M49.93 78 C40.12 79.37, 32.96 79.27, 16.64 78 M16.64 78 C7.3 77.59, -1.46 70.9, 0 61.36 M0 61.36 C-0.88 46.52, -1.28 30.97, 0 16.64 M0 16.64 C1.43 7.29, 5.69 -0.59, 16.64 0" stroke="#1e1e1e" stroke-width="2.5" fill="none" stroke-dasharray="8 10"></path></g><g transform="translate(617.2858581542969 297.8351263625543) rotate(0 23.887969970703125 10)"><text x="23.887969970703125" y="14.016" font-family="Virgil, Segoe UI Emoji" font-size="16px" fill="#1e1e1e" text-anchor="middle" style="white-space: pre;" direction="ltr" dominant-baseline="alphabetic">more...</text></g><g transform="translate(138.1796875 151.00504823755432) rotate(0 144.96792602539062 10)"><text x="0" y="14.016" font-family="Virgil, Segoe UI Emoji" font-size="16px" fill="#1e1e1e" text-anchor="start" style="white-space: pre;" direction="ltr" dominant-baseline="alphabetic">LINUX, MacOS, Windows, iOS, Android</text></g><g stroke-linecap="round" transform="translate(105.57421875 462.8409857375543) rotate(0 8.65625 9.0546875)"><path d="M4.33 0 C8.07 -0.37, 10.22 0.68, 12.98 0 C15.26 -0.96, 15.54 -0.04, 17.31 4.33 C17.98 7.49, 16.96 11.56, 17.31 13.78 C17.43 18.48, 16.57 17.27, 12.98 18.11 C10.93 18.65, 8.3 17.5, 4.33 18.11 C1.24 16.07, 0.08 19.03, 0 13.78 C0.12 11.71, -0.1 9.09, 0 4.33 C-0.05 2.69, -0.13 -1.2, 4.33 0" stroke="none" stroke-width="0" fill="#a5d8ff"></path><path d="M4.33 0 C6.8 0, 11.16 0.76, 12.98 0 M12.98 0 C17.48 -0.71, 17.72 2.23, 17.31 4.33 M17.31 4.33 C17.38 7.31, 16.73 10.01, 17.31 13.78 M17.31 13.78 C19.29 18.01, 15.69 18.9, 12.98 18.11 M12.98 18.11 C10.95 18.36, 7.19 17.4, 4.33 18.11 M4.33 18.11 C0.64 16.71, -0.19 17.04, 0 13.78 M0 13.78 C-0.19 10.61, -0.84 7.44, 0 4.33 M0 4.33 C-0.09 2.74, 1.78 0.8, 4.33 0" stroke="#1e1e1e" stroke-width="2.5" fill="none" stroke-dasharray="8 10"></path></g><g stroke-linecap="round" transform="translate(71.296875 443.5597357375543) rotate(0 8.65625 9.0546875)"><path d="M4.33 0 C7.35 0.23, 8.85 0.85, 12.98 0 C18.67 -0.74, 14.48 -1.88, 17.31 4.33 C18.5 6.38, 15.85 10.79, 17.31 13.78 C15.31 13.55, 19.24 21.33, 12.98 18.11 C10.03 19.46, 8.31 17.1, 4.33 18.11 C4.87 16.87, -0.26 15.6, 0 13.78 C1.35 8.99, 0.36 7.53, 0 4.33 C-1.49 1.71, 1.12 2.92, 4.33 0" stroke="none" stroke-width="0" fill="#a5d8ff"></path><path d="M4.33 0 C6.23 -0.78, 8.09 -0.07, 12.98 0 M12.98 0 C17.42 -0.42, 15.71 0.19, 17.31 4.33 M17.31 4.33 C18.02 6.35, 18.06 10.19, 17.31 13.78 M17.31 13.78 C18.18 14.73, 14.99 20.02, 12.98 18.11 M12.98 18.11 C10.66 18.88, 8.36 18.33, 4.33 18.11 M4.33 18.11 C3.29 18.51, 1.73 17.35, 0 13.78 M0 13.78 C-0.36 11.91, 0.19 9.03, 0 4.33 M0 4.33 C-1.32 -0.13, -0.15 1.11, 4.33 0" stroke="#1e1e1e" stroke-width="2.5" fill="none" stroke-dasharray="8 10"></path></g><g stroke-linecap="round" transform="translate(146.20703125 457.2472357375543) rotate(0 8.65625 9.0546875)"><path d="M4.33 0 C8.12 1.3, 9.6 -1.14, 12.98 0 C12.55 2.75, 18.54 -0.16, 17.31 4.33 C16.51 6.85, 15.69 12.85, 17.31 13.78 C20.53 13.32, 17.71 19.22, 12.98 18.11 C9.98 19.48, 8.54 17.89, 4.33 18.11 C0.38 20.24, 0.22 13.81, 0 13.78 C0.68 9.49, 0.27 6.44, 0 4.33 C2.92 3.83, -2.05 1.99, 4.33 0" stroke="none" stroke-width="0" fill="#a5d8ff"></path><path d="M4.33 0 C6.64 0.72, 8.93 -0.65, 12.98 0 M12.98 0 C14.61 -0.55, 15.85 1.36, 17.31 4.33 M17.31 4.33 C17.97 8.36, 16.34 11.15, 17.31 13.78 M17.31 13.78 C19.22 16.65, 16.12 18.01, 12.98 18.11 M12.98 18.11 C10.35 18.96, 7.44 18.91, 4.33 18.11 M4.33 18.11 C2.13 16.72, 1.11 15.65, 0 13.78 M0 13.78 C-0.43 10.63, -0.77 7.98, 0 4.33 M0 4.33 C1.11 1.61, 0.64 1.89, 4.33 0" stroke="#1e1e1e" stroke-width="2.5" fill="none" stroke-dasharray="8 10"></path></g><g stroke-linecap="round" transform="translate(174.44140625 553.5675482375543) rotate(0 8.65625 9.0546875)"><path d="M4.33 0 C6.43 0.08, 9.39 -1.3, 12.98 0 C19.27 -1.09, 20.91 -1.09, 17.31 4.33 C17.68 7.68, 18.08 9.39, 17.31 13.78 C14.14 19.71, 14.18 17.55, 12.98 18.11 C11.48 17.6, 6.3 16.6, 4.33 18.11 C4.72 15.78, 0.07 13.46, 0 13.78 C-0.71 10.01, -0.14 5.41, 0 4.33 C1.57 0.15, 3.34 -2.96, 4.33 0" stroke="none" stroke-width="0" fill="#a5d8ff"></path><path d="M4.33 0 C8.12 0.65, 9.72 0.41, 12.98 0 M12.98 0 C16.6 1.99, 16.35 -0.35, 17.31 4.33 M17.31 4.33 C17.97 6.7, 17.35 9.87, 17.31 13.78 M17.31 13.78 C17.56 14.85, 17.27 17.65, 12.98 18.11 M12.98 18.11 C11.02 18.54, 7.75 17.53, 4.33 18.11 M4.33 18.11 C2.75 17.35, -0.67 14.88, 0 13.78 M0 13.78 C0.8 11.22, 0.73 7.64, 0 4.33 M0 4.33 C1.47 3.33, 3.09 -1.14, 4.33 0" stroke="#1e1e1e" stroke-width="2.5" fill="none" stroke-dasharray="8 10"></path></g><g stroke-linecap="round" transform="translate(212.33203125 574.2511419875543) rotate(0 8.65625 9.0546875)"><path d="M4.33 0 C5.57 -1.28, 9.79 1.33, 12.98 0 C12.77 -1.21, 18.94 4.42, 17.31 4.33 C18.89 7.19, 18.53 7.83, 17.31 13.78 C17.41 17.06, 12.79 15.1, 12.98 18.11 C8.52 17.29, 6.76 19.73, 4.33 18.11 C1.76 17.05, -2.74 16.71, 0 13.78 C0.73 9.27, 1.81 6.74, 0 4.33 C-0.43 1.54, 0.63 -0.45, 4.33 0" stroke="none" stroke-width="0" fill="#a5d8ff"></path><path d="M4.33 0 C6.59 0.77, 10.19 0.26, 12.98 0 M12.98 0 C16.63 0.36, 15.41 0.04, 17.31 4.33 M17.31 4.33 C18.18 6.14, 16.58 8.17, 17.31 13.78 M17.31 13.78 C17.42 15.38, 14.01 18.93, 12.98 18.11 M12.98 18.11 C10.33 18.19, 8.5 17.67, 4.33 18.11 M4.33 18.11 C3.17 16.54, -1.09 16.5, 0 13.78 M0 13.78 C-0.2 10.34, -0.33 6.19, 0 4.33 M0 4.33 C-1.36 1.91, -0.23 1.27, 4.33 0" stroke="#1e1e1e" stroke-width="2.5" fill="none" stroke-dasharray="8 10"></path></g><g stroke-linecap="round" transform="translate(279.4765625 439.7472357375543) rotate(0 8.65625 9.0546875)"><path d="M4.33 0 C4.73 0.01, 7.59 -0.47, 12.98 0 C12.39 1.63, 18.62 1.03, 17.31 4.33 C17.79 7.08, 15.82 11.81, 17.31 13.78 C20.56 16.01, 12.99 16.67, 12.98 18.11 C9.76 17.91, 6.66 19.37, 4.33 18.11 C1.84 17.57, -2.71 17.88, 0 13.78 C0.7 11.93, -0.38 6.32, 0 4.33 C2.56 0.17, -0.64 -1.09, 4.33 0" stroke="none" stroke-width="0" fill="#a5d8ff"></path><path d="M4.33 0 C6.8 0.46, 10.57 -0.58, 12.98 0 M12.98 0 C16.14 1.03, 19.13 2.32, 17.31 4.33 M17.31 4.33 C17.37 7.02, 16.48 12.06, 17.31 13.78 M17.31 13.78 C17.29 18.43, 14.34 16.89, 12.98 18.11 M12.98 18.11 C9.96 17.46, 7.45 18.47, 4.33 18.11 M4.33 18.11 C-0.15 18.05, 0.7 15.15, 0 13.78 M0 13.78 C0.06 9.8, -0.08 6.38, 0 4.33 M0 4.33 C1.15 1.28, 2.76 0.58, 4.33 0" stroke="#1e1e1e" stroke-width="2.5" fill="none" stroke-dasharray="8 10"></path></g><g stroke-linecap="round" transform="translate(289.4765625 449.7472357375543) rotate(0 8.65625 9.0546875)"><path d="M4.33 0 C8.27 0.61, 11.08 0.65, 12.98 0 C12.75 0.14, 18.82 1.85, 17.31 4.33 C15.96 8.9, 17.86 10.79, 17.31 13.78 C19.3 16.79, 19.15 21.47, 12.98 18.11 C10.8 18.76, 7.95 16.97, 4.33 18.11 C2.66 21.34, 1.57 14.41, 0 13.78 C1.67 11.93, -0.45 6.14, 0 4.33 C-3.16 -0.28, 2.43 -1.27, 4.33 0" stroke="none" stroke-width="0" fill="#a5d8ff"></path><path d="M4.33 0 C6.86 0.19, 11.07 0.17, 12.98 0 M12.98 0 C16.84 -1.97, 18.46 2.25, 17.31 4.33 M17.31 4.33 C16.37 7.59, 18.12 10.28, 17.31 13.78 M17.31 13.78 C15.32 17.14, 15.48 19.73, 12.98 18.11 M12.98 18.11 C10.13 18.57, 9.06 17.28, 4.33 18.11 M4.33 18.11 C0.42 17.82, 0.25 15.68, 0 13.78 M0 13.78 C-0.11 10.83, -0.26 7.69, 0 4.33 M0 4.33 C-1.68 -0.01, 1.96 1.68, 4.33 0" stroke="#1e1e1e" stroke-width="2.5" fill="none" stroke-dasharray="8 10"></path></g><g stroke-linecap="round" transform="translate(299.4765625 460.5284857375543) rotate(0 8.65625 9.0546875)"><path d="M4.33 0 C7.85 -1.38, 10.38 0.62, 12.98 0 C16.28 2.51, 18.78 4.4, 17.31 4.33 C16.89 7.32, 17.48 9.98, 17.31 13.78 C20.68 15.6, 14.55 17.79, 12.98 18.11 C9.17 18.6, 9.02 18.75, 4.33 18.11 C-0.82 19.7, -1.15 13.84, 0 13.78 C-1.27 8.55, -0.95 6.78, 0 4.33 C-1.27 -0.77, 2.15 -3.33, 4.33 0" stroke="none" stroke-width="0" fill="#a5d8ff"></path><path d="M4.33 0 C6.29 0.41, 7.1 0.49, 12.98 0 M12.98 0 C16.68 -0.4, 16.65 0.03, 17.31 4.33 M17.31 4.33 C18.03 5.31, 17.6 7.99, 17.31 13.78 M17.31 13.78 C18.94 15.89, 14.72 17.92, 12.98 18.11 M12.98 18.11 C10.16 17.73, 8.85 18.28, 4.33 18.11 M4.33 18.11 C0.46 18.59, -0.04 15.58, 0 13.78 M0 13.78 C0.03 10.27, -0.7 8.58, 0 4.33 M0 4.33 C1.68 2.88, 0.43 -1.7, 4.33 0" stroke="#1e1e1e" stroke-width="2.5" fill="none" stroke-dasharray="8 10"></path></g><g stroke-linecap="round" transform="translate(488.5234375 448.9503607375543) rotate(0 8.65625 9.0546875)"><path d="M4.33 0 C6.71 -1.32, 10.42 0.47, 12.98 0 C14.6 -2.21, 18.02 -1.89, 17.31 4.33 C17.52 8.4, 17.31 11.61, 17.31 13.78 C17.18 18.88, 13.33 14.77, 12.98 18.11 C12.2 17.11, 8.37 19.14, 4.33 18.11 C-1.67 16.74, -0.38 16, 0 13.78 C0.07 9.85, -1.55 7.7, 0 4.33 C-0.58 3.03, -1.18 -1.14, 4.33 0" stroke="none" stroke-width="0" fill="#a5d8ff"></path><path d="M4.33 0 C6.85 -0.7, 8.68 0.25, 12.98 0 M12.98 0 C17.55 1.44, 16.3 -0.25, 17.31 4.33 M17.31 4.33 C17.66 6.78, 17.38 11.27, 17.31 13.78 M17.31 13.78 C17.54 18.06, 16.68 19.75, 12.98 18.11 M12.98 18.11 C10.84 18.61, 9.26 18.92, 4.33 18.11 M4.33 18.11 C3.31 17.51, -0.73 16.49, 0 13.78 M0 13.78 C-0.73 11.17, 0.81 8.34, 0 4.33 M0 4.33 C-1.26 2.33, 0.8 -1.57, 4.33 0" stroke="#1e1e1e" stroke-width="2.5" fill="none" stroke-dasharray="8 10"></path></g><g stroke-linecap="round" transform="translate(505.5234375 448.9503607375543) rotate(0 8.65625 9.0546875)"><path d="M4.33 0 C7.47 -1.35, 10.98 -0.51, 12.98 0 C16.35 0.58, 18.66 1.59, 17.31 4.33 C16.1 5.82, 16.1 11.64, 17.31 13.78 C18.63 19.45, 13.44 16.62, 12.98 18.11 C9.68 17.76, 6.04 18.22, 4.33 18.11 C0.88 18.3, -3.17 13.42, 0 13.78 C-1.21 11.09, 0.09 9.17, 0 4.33 C-1.15 1.98, 1.06 -2.96, 4.33 0" stroke="none" stroke-width="0" fill="#a5d8ff"></path><path d="M4.33 0 C6.71 -0.8, 10.37 0.2, 12.98 0 M12.98 0 C16.27 0.67, 15.58 1.52, 17.31 4.33 M17.31 4.33 C17.71 8.34, 16.53 11.39, 17.31 13.78 M17.31 13.78 C17.88 16.04, 16.97 18.18, 12.98 18.11 M12.98 18.11 C9.28 18.01, 6.3 18.45, 4.33 18.11 M4.33 18.11 C0.99 16.66, 0.67 18.46, 0 13.78 M0 13.78 C-0.24 9.79, 0.96 8.07, 0 4.33 M0 4.33 C-0.59 0.11, -0.31 -0.95, 4.33 0" stroke="#1e1e1e" stroke-width="2.5" fill="none" stroke-dasharray="8 10"></path></g><g stroke-linecap="round" transform="translate(505.5234375 448.9503607375543) rotate(0 8.65625 9.0546875)"><path d="M4.33 0 C7.72 0.56, 10.67 0.36, 12.98 0 C15.74 2.21, 14.77 -1.9, 17.31 4.33 C18.74 5.34, 16.73 9.72, 17.31 13.78 C14.2 15.3, 15.49 17.44, 12.98 18.11 C10.84 16.71, 7.13 16.97, 4.33 18.11 C0.86 19.7, -2.63 15.53, 0 13.78 C0.28 10.73, -1.37 7.64, 0 4.33 C-2.16 -2.06, 1.59 -2.44, 4.33 0" stroke="none" stroke-width="0" fill="#a5d8ff"></path><path d="M4.33 0 C7.62 -0.77, 10.36 0.35, 12.98 0 M12.98 0 C16.1 1.39, 18.13 3.08, 17.31 4.33 M17.31 4.33 C17.08 6.9, 17.4 9.29, 17.31 13.78 M17.31 13.78 C19.18 16.07, 15.13 17.93, 12.98 18.11 M12.98 18.11 C9.68 18.38, 8.4 18.47, 4.33 18.11 M4.33 18.11 C0.19 19, -0.64 15.09, 0 13.78 M0 13.78 C-0.71 9.22, -0.53 6.58, 0 4.33 M0 4.33 C-0.7 0.21, 1.84 -1.85, 4.33 0" stroke="#1e1e1e" stroke-width="2.5" fill="none" stroke-dasharray="8 10"></path></g><g stroke-linecap="round" transform="translate(519.5234375 453.9503607375543) rotate(0 9.89068603515625 9.166015625)"><path d="M4.58 0 C5.96 -1.22, 12.2 0.83, 15.2 0 C21.03 -2.43, 18.29 3.77, 19.78 4.58 C19.41 5.83, 19.9 8.24, 19.78 13.75 C19.98 13.63, 15.01 15.75, 15.2 18.33 C11.58 18.26, 8.83 17.58, 4.58 18.33 C2.06 17.95, -2.96 15.95, 0 13.75 C-0.96 11.2, -0.78 8.65, 0 4.58 C1.94 -1.01, -0.36 2.06, 4.58 0" stroke="none" stroke-width="0" fill="#a5d8ff"></path><path d="M4.58 0 C8.76 -0.93, 11.86 0.26, 15.2 0 M15.2 0 C17.63 1.1, 19.85 3.35, 19.78 4.58 M19.78 4.58 C19.67 8.28, 20.14 11.59, 19.78 13.75 M19.78 13.75 C18.33 17.48, 20.05 19.2, 15.2 18.33 M15.2 18.33 C11.85 19.3, 11.04 17.98, 4.58 18.33 M4.58 18.33 C0.2 16.57, -0.95 17.35, 0 13.75 M0 13.75 C-0.79 11.9, -0.3 9.02, 0 4.58 M0 4.58 C0.32 2.28, 1.61 0.49, 4.58 0" stroke="#1e1e1e" stroke-width="2.5" fill="none" stroke-dasharray="8 10"></path></g><g stroke-linecap="round" transform="translate(418.546875 554.9737982375543) rotate(0 9.89068603515625 9.166015625)"><path d="M4.58 0 C9.43 1.76, 10.24 1.44, 15.2 0 C16.36 -1.51, 17.61 -1.62, 19.78 4.58 C21.31 6.24, 21.07 7.7, 19.78 13.75 C19.62 19.37, 20.58 16.26, 15.2 18.33 C11.51 17.82, 9.09 19.91, 4.58 18.33 C4.95 17.34, 1.29 16.84, 0 13.75 C-0.89 10.82, 1.38 6.43, 0 4.58 C-1.81 4.71, 4.62 3.16, 4.58 0" stroke="none" stroke-width="0" fill="#a5d8ff"></path><path d="M4.58 0 C8.3 0.14, 10.59 -0.21, 15.2 0 M15.2 0 C18.85 0.98, 21.14 2.83, 19.78 4.58 M19.78 4.58 C20.41 6.38, 18.93 9.18, 19.78 13.75 M19.78 13.75 C18.78 18.69, 19.57 18.47, 15.2 18.33 M15.2 18.33 C10.43 19.17, 7.85 17.71, 4.58 18.33 M4.58 18.33 C1.47 20.11, 1.65 16.46, 0 13.75 M0 13.75 C-0.38 9.94, 0.73 7.5, 0 4.58 M0 4.58 C-0.63 -0.13, 1.85 -1.93, 4.58 0" stroke="#1e1e1e" stroke-width="2.5" fill="none" stroke-dasharray="8 10"></path></g><g stroke-linecap="round" transform="translate(499.515625 562.0206732375543) rotate(0 8.65625 9.0546875)"><path d="M4.33 0 C4.99 -0.69, 8.19 -0.39, 12.98 0 C14.33 0.39, 16.75 1.64, 17.31 4.33 C16.88 7.08, 15.92 7.8, 17.31 13.78 C17.45 16.03, 14.72 18.64, 12.98 18.11 C9.55 16.56, 8.04 17.01, 4.33 18.11 C0.69 16.06, -1.53 18.6, 0 13.78 C0.04 10.78, -0.07 8.49, 0 4.33 C1.98 0.22, 0.85 0.76, 4.33 0" stroke="none" stroke-width="0" fill="#ffc9c9"></path><path d="M4.33 0 C8.21 -0.34, 10.16 -0.16, 12.98 0 M12.98 0 C16.06 0.85, 16.86 -0.01, 17.31 4.33 M17.31 4.33 C16.8 7.9, 17.09 9.89, 17.31 13.78 M17.31 13.78 C19.21 18.32, 15.28 16.78, 12.98 18.11 M12.98 18.11 C10.84 17.6, 9.48 17.33, 4.33 18.11 M4.33 18.11 C2.7 17.33, 0.27 16.99, 0 13.78 M0 13.78 C-0.04 11.17, -0.67 6.52, 0 4.33 M0 4.33 C-1.42 2.83, 2.17 1.54, 4.33 0" stroke="#1e1e1e" stroke-width="2.5" fill="none" stroke-dasharray="8 10"></path></g><g stroke-linecap="round" transform="translate(376.90625 457.2706732375543) rotate(0 8.65625 9.0546875)"><path d="M4.33 0 C6.52 0.07, 7.83 -1.42, 12.98 0 C13.28 -0.58, 18.9 -1.18, 17.31 4.33 C16.78 7.12, 17.14 8, 17.31 13.78 C16.46 14.51, 12.37 18.26, 12.98 18.11 C10.32 18.86, 7.87 17.2, 4.33 18.11 C3.5 18.01, -1.77 16.32, 0 13.78 C-0.37 11.84, -0.8 10.19, 0 4.33 C2.76 3.44, 4.15 2.86, 4.33 0" stroke="none" stroke-width="0" fill="#ffc9c9"></path><path d="M4.33 0 C6.65 -0.66, 9.66 0.74, 12.98 0 M12.98 0 C16.74 -1.26, 18.2 0.8, 17.31 4.33 M17.31 4.33 C17.12 5.79, 16.57 8.06, 17.31 13.78 M17.31 13.78 C17.86 15.96, 14.64 18.5, 12.98 18.11 M12.98 18.11 C11.3 18.21, 9.72 18.11, 4.33 18.11 M4.33 18.11 C1.94 18.04, 1.23 15.25, 0 13.78 M0 13.78 C0.41 12.55, -0.57 9.47, 0 4.33 M0 4.33 C1.25 -0.29, 0.68 -0.21, 4.33 0" stroke="#1e1e1e" stroke-width="2.5" fill="none" stroke-dasharray="8 10"></path></g><g stroke-linecap="round" transform="translate(729.5234375 415.9503607375543) rotate(0 8.65625 9.0546875)"><path d="M4.33 0 C7.23 0.75, 8.85 0.68, 12.98 0 C15.32 1.21, 15.65 3.27, 17.31 4.33 C16.58 6.06, 15.84 7.55, 17.31 13.78 C20.62 15.62, 19.26 20.08, 12.98 18.11 C10.56 19.62, 6.07 18.21, 4.33 18.11 C-2 19.43, -3.23 18.33, 0 13.78 C1.62 9.87, -1.52 8.77, 0 4.33 C-3.44 2.39, -0.29 1.89, 4.33 0" stroke="none" stroke-width="0" fill="#a5d8ff"></path><path d="M4.33 0 C7.69 0.59, 10.28 0.15, 12.98 0 M12.98 0 C16.42 1.99, 15.92 -0.24, 17.31 4.33 M17.31 4.33 C16.85 8.2, 17.2 11.36, 17.31 13.78 M17.31 13.78 C18.14 15.63, 13.95 19.6, 12.98 18.11 M12.98 18.11 C10.52 17.68, 8.98 18.64, 4.33 18.11 M4.33 18.11 C1.55 18.7, -1.67 16.69, 0 13.78 M0 13.78 C-0.96 9.37, 0.53 7.28, 0 4.33 M0 4.33 C-1.52 0.98, -0.38 -1.58, 4.33 0" stroke="#1e1e1e" stroke-width="2.5" fill="none" stroke-dasharray="8 10"></path></g><g stroke-linecap="round" transform="translate(732.1171875 466.9503607375543) rotate(0 8.65625 9.0546875)"><path d="M4.33 0 C7.12 0.45, 9.67 0.72, 12.98 0 C12.67 2.71, 15.04 -0.37, 17.31 4.33 C18.72 6.52, 18.75 10.64, 17.31 13.78 C19.64 16.65, 17.49 19.81, 12.98 18.11 C8.1 18.68, 4.8 18.83, 4.33 18.11 C0.05 18, 2.23 20.09, 0 13.78 C-1.47 12.19, -0.67 10.6, 0 4.33 C2.44 -1.54, -0.99 -2.31, 4.33 0" stroke="none" stroke-width="0" fill="#ffc9c9"></path><path d="M4.33 0 C7.69 0.85, 9.97 -0.74, 12.98 0 M12.98 0 C16.49 0.7, 17.06 0.39, 17.31 4.33 M17.31 4.33 C17.69 7.41, 16.39 12.19, 17.31 13.78 M17.31 13.78 C16.76 16.3, 15.6 17.85, 12.98 18.11 M12.98 18.11 C10.85 18.42, 7.9 18.18, 4.33 18.11 M4.33 18.11 C2.96 19.96, -1.73 14.81, 0 13.78 M0 13.78 C-0.78 11.59, -0.92 9.09, 0 4.33 M0 4.33 C0.65 -0.25, 1.91 0.04, 4.33 0" stroke="#1e1e1e" stroke-width="2.5" fill="none" stroke-dasharray="8 10"></path></g><g transform="translate(758.9375 414.2237982375543) rotate(0 80.89595031738281 10)"><text x="0" y="14.016" font-family="Virgil, Segoe UI Emoji" font-size="16px" fill="#1e1e1e" text-anchor="start" style="white-space: pre;" direction="ltr" dominant-baseline="alphabetic">pure Python package</text></g><g transform="translate(762.16015625 467.0792669875543) rotate(0 96.42393493652344 20)"><text x="0" y="14.016" font-family="Virgil, Segoe UI Emoji" font-size="16px" fill="#1e1e1e" text-anchor="start" style="white-space: pre;" direction="ltr" dominant-baseline="alphabetic">packages with additional</text><text x="0" y="34.016" font-family="Virgil, Segoe UI Emoji" font-size="16px" fill="#1e1e1e" text-anchor="start" style="white-space: pre;" direction="ltr" dominant-baseline="alphabetic">languages (C, C++)</text></g><g transform="translate(261.3715595642724 10) rotate(0 101.70172479550052 39.71484375)"><text x="0" y="55.664325000000034" font-family="Virgil, Segoe UI Emoji" font-size="63.54375000000003px" fill="#1971c2" text-anchor="start" style="white-space: pre;" direction="ltr" dominant-baseline="alphabetic">Basics</text></g><g transform="translate(31.7421875 654.9464544875543) rotate(0 344.5546875 21.35432676244568)"><text x="0" y="29.930224390243875" font-family="Virgil, Segoe UI Emoji" font-size="34.1669228199131px" fill="#1971c2" text-anchor="start" style="white-space: pre;" direction="ltr" dominant-baseline="alphabetic">your Python for learning and development</text></g></svg>